<svg xmlns="http://www.w3.org/2000/svg" viewBox="0 0 64 64" width="64" height="64">
  <defs>
    <linearGradient id="bg" x1="0%" y1="100%" x2="100%" y2="0%">
      <stop offset="0%" stop-color="#4ade80" /> <!-- green-400 -->
      <stop offset="100%" stop-color="#059669" /> <!-- emerald-600 -->
    </linearGradient>
    <filter id="shadow" x="-20%" y="-20%" width="140%" height="140%">
      <feDropShadow dx="0" dy="2" stdDeviation="3" flood-color="#059669" flood-opacity="0.5"/>
    </filter>
  </defs>
  
  <rect x="4" y="4" width="56" height="56" rx="16" fill="url(#bg)" filter="url(#shadow)" />
  
  <g transform="translate(16, 16) scale(1.33)" fill="none" stroke="#ffffff" stroke-width="2.5" stroke-linecap="round" stroke-linejoin="round">
    <path d="M16.2 3.8a2.7 2.7 0 0 0-3.81 0l-.4.38-.4-.38a2.7 2.7 0 0 0-3.81 3.81L12 12l4.19-4.39a2.7 2.7 0 0 0 0-3.81Z"/>
    <path d="M7.8 20.2a2.7 2.7 0 0 0 3.81 0l.4-.38.4.38a2.7 2.7 0 0 0 3.81-3.81L12 12l-4.19 4.39a2.7 2.7 0 0 0 0 3.81Z"/>
    <path d="M20.2 16.2a2.7 2.7 0 0 0 0-3.81l-.38-.4.38-.4a2.7 2.7 0 0 0-3.81-3.81L12 12l4.39 4.19a2.7 2.7 0 0 0 3.81 0Z"/>
    <path d="M3.8 7.8a2.7 2.7 0 0 0 0 3.81l.38.4-.38.4a2.7 2.7 0 0 0 3.81 3.81L12 12 7.61 7.81a2.7 2.7 0 0 0-3.81 0Z"/>
    <path d="m12 12 0 10"/>
  </g>
</svg>